<svg width="64" height="64" xmlns="http://www.w3.org/2000/svg">
 <title/>

 <g>
  <title>background</title>
  <rect fill="none" id="canvas_background" height="402" width="582" y="-1" x="-1"/>
 </g>
 <g>
  <title>Layer 1</title>
  <path fill="#d8d83a" id="svg_1" d="m17.22,15.12a1,1 0 0 0 1,-1l0,-2.46a1,1 0 0 0 -2,0l0,2.46a1,1 0 0 0 1,1z"/>
  <path fill="#d8d83a" id="svg_2" d="m2,27.77086l2.46,0a1,1 0 0 0 0,-2l-2.46,0a1,1 0 1 0 0,2z"/>
  <path fill="#d8d83a" id="svg_3" d="m7.49,18.56a1,1 0 1 0 1.41,-1.41l-1.73,-1.74a1,1 0 1 0 -1.41,1.41l1.73,1.74z"/>
  <path fill="#d8d83a" id="svg_4" d="m6.46,38.53086a1,1 0 0 0 0.71,-0.29l1.74,-1.74a1,1 0 0 0 -1.42,-1.41l-1.73,1.73a1,1 0 0 0 0.71,1.71l-0.01,0z"/>
  <path fill="#d8d83a" id="svg_5" d="m26.25,18.75086a1,1 0 0 0 0.71,-0.29l1.74,-1.74a1,1 0 0 0 -1.41,-1.41l-1.74,1.74a1,1 0 0 0 0.71,1.71l-0.01,-0.01z"/>
  <path fill="#ffffff" id="svg_6" d="m54.44,36.78a1,1 0 0 1 -0.9,-1.11a1.48,1.48 0 0 0 0,-0.15a5.17,5.17 0 0 0 -5.17,-5.17l-0.07,0a5.18,5.18 0 0 0 -0.91,0.09l-0.16,0a5.12,5.12 0 0 0 -0.75,0.23l-0.23,0.1a5.16,5.16 0 0 0 -2.31,7.34a1,1 0 1 1 -1.72,1a7.16,7.16 0 0 1 2.25,-9.67a11.48,11.48 0 0 0 -11,-8.33c-0.37,0 -0.73,0 -1.09,0l-0.11,0l-0.17,0l-0.12,0l-0.22,0l-0.51,0.08l-0.37,0.09l-0.43,0.11a12,12 0 0 0 -1.42,0.5l-0.51,0.23a10.38,10.38 0 0 0 -1,0.52l-0.46,0.3c-0.17,0.1 -0.27,0.18 -0.38,0.26l-0.09,0.07l-0.24,0.19l-0.71,0.61c-0.1,0.09 -0.19,0.18 -0.29,0.27l-0.37,0.39c-0.14,0.15 -0.25,0.27 -0.35,0.41s-0.25,0.31 -0.36,0.45l0,0a4.06,4.06 0 0 0 -0.26,0.37a10.46,10.46 0 0 0 -0.87,1.49l0,0c-0.08,0.17 -0.16,0.33 -0.23,0.5s-0.18,0.42 -0.25,0.62s-0.1,0.28 -0.14,0.41s-0.11,0.37 -0.16,0.54s-0.1,0.4 -0.14,0.58l0,0a11.56,11.56 0 0 0 -0.23,2.3c0,0.28 0,0.57 0,0.85a1,1 0 0 1 -0.91,1.08l-0.08,0a1,1 0 0 1 -1,-0.92c0,-0.34 0,-0.68 0,-1s0,-0.5 0,-0.76a9.9,9.9 0 0 0 -6.52,3.35a9.75,9.75 0 0 0 7.21,16.31l33,0a7.3,7.3 0 0 0 0.73,-14.56l0.02,0.03zm-31.44,1.93a1,1 0 0 1 -1.36,-0.39q-0.31,-0.56 -0.57,-1.14a1,1 0 0 1 1.82,-0.83q0.23,0.51 0.5,1a1,1 0 0 1 -0.39,1.36z"/>
  <path fill="#d8d83a" id="svg_7" d="m12.61,33.06l0.13,-0.11l0.36,-0.31l0.51,-0.41l0.39,-0.23l0.54,-0.36l0.41,-0.24l0.57,-0.3l0.43,-0.2l0.61,-0.25l0.43,-0.16l0.66,-0.19l0.42,-0.11c0.25,-0.06 0.49,-0.1 0.74,-0.14l0.36,-0.06c0.37,0 0.75,-0.08 1.13,-0.09c0,-0.19 0.09,-0.4 0.14,-0.59l0,0l0,0c0,-0.16 0.09,-0.33 0.15,-0.52s0.12,-0.39 0.18,-0.56s0.18,-0.47 0.28,-0.71l0,0l0,0c0.09,-0.21 0.18,-0.41 0.28,-0.61l0,0l0,0a11.75,11.75 0 0 1 0.95,-1.64l0,0l0,0l0,0a6,6 0 0 1 0.35,-0.5c0.12,-0.16 0.25,-0.32 0.38,-0.47l0,0l0,0l0,0c0.1,-0.13 0.25,-0.31 0.41,-0.48l0.41,-0.43a7.69,7.69 0 1 0 -11.32,9.91l0.1,-0.24z"/>
 </g>
</svg>