<svg width="64" height="64" xmlns="http://www.w3.org/2000/svg">
 <title/>

 <g>
  <title>background</title>
  <rect fill="none" id="canvas_background" height="402" width="582" y="-1" x="-1"/>
 </g>
 <g>
  <title>Layer 1</title>
  <path fill="#ffffff" id="svg_1" d="m16.56,57.23a1,1 0 0 0 1,1l1.34,0l-0.94,0.94a1,1 0 1 0 1.41,1.41l0.94,-0.94l0,1.36a1,1 0 0 0 2,0l0,-1.36l0.94,0.94a1,1 0 0 0 1.41,-1.41l-0.94,-0.94l1.34,0a1,1 0 0 0 0,-2l-1.33,0l0.94,-0.94a1,1 0 0 0 -1.41,-1.41l-0.94,0.94l0,-1.34a1,1 0 0 0 -2,0l0,1.34l-0.94,-0.94a1,1 0 0 0 -1.38,1.4l0.94,0.94l-1.38,0a1,1 0 0 0 -1,1.01z"/>
  <path fill="#ffffff" id="svg_2" d="m37.94,57.23a1,1 0 0 0 1,1l1.34,0l-0.94,0.94a1,1 0 1 0 1.41,1.41l0.94,-0.94l0,1.36a1,1 0 0 0 2,0l0,-1.36l0.94,0.94a1,1 0 0 0 1.37,-1.41l-0.94,-0.94l1.34,0a1,1 0 0 0 0,-2l-1.3,0l0.94,-0.94a1,1 0 0 0 -1.41,-1.41l-0.94,0.94l0,-1.34a1,1 0 0 0 -2,0l0,1.34l-0.94,-0.94a1,1 0 0 0 -1.41,1.41l0.94,0.94l-1.34,0a1,1 0 0 0 -1,1z"/>
  <path fill="#ffffff" id="svg_3" d="m14.38,46.23l-1.38,0l0.94,-0.94a1,1 0 0 0 -1.41,-1.41l-0.94,0.94l0,-1.34a1,1 0 0 0 -2,0l0,1.34l-0.94,-0.94a1,1 0 0 0 -1.41,1.41l0.94,0.94l-1.3,0a1,1 0 0 0 0,2l1.33,0l-0.94,0.94a1,1 0 1 0 1.41,1.41l0.94,-0.94l0,1.36a1,1 0 0 0 2,0l0,-1.36l0.94,0.94a1,1 0 0 0 1.44,-1.41l-1,-0.94l1.34,0a1,1 0 0 0 0,-2l0.04,0z"/>
  <path fill="#ffffff" id="svg_4" d="m35.75,46.23l-1.34,0l0.94,-0.94a1,1 0 0 0 -1.41,-1.41l-0.94,0.94l0,-1.34a1,1 0 0 0 -2,0l0,1.34l-0.94,-0.94a1,1 0 0 0 -1.41,1.41l0.94,0.94l-1.34,0a1,1 0 0 0 0,2l1.34,0l-0.94,0.94a1,1 0 1 0 1.41,1.41l0.94,-0.94l0,1.36a1,1 0 0 0 2,0l0,-1.36l0.94,0.94a1,1 0 0 0 1.41,-1.41l-0.94,-0.94l1.34,0a1,1 0 0 0 0,-2z"/>
  <path fill="#ffffff" id="svg_5" d="m57.13,46.23l-1.34,0l0.94,-0.94a1,1 0 0 0 -1.41,-1.41l-0.94,0.94l0,-1.34a1,1 0 0 0 -2,0l0,1.34l-0.94,-0.94a1,1 0 0 0 -1.44,1.4l0.94,0.94l-1.31,0a1,1 0 0 0 0,2l1.37,0l-0.94,0.94a1,1 0 1 0 1.41,1.41l0.94,-0.94l0,1.37a1,1 0 0 0 2,0l0,-1.36l0.94,0.94a1,1 0 0 0 1.41,-1.41l-0.94,-0.94l1.34,0a1,1 0 0 0 0,-2l-0.03,0z"/>
  <path fill="#f2f2f2" id="svg_6" d="m53.3,22a1,1 0 0 1 -0.89,-1.12a1.54,1.54 0 0 0 0,-0.18a6.1,6.1 0 0 0 -7.49,-5.95l0,0a6,6 0 0 0 -0.6,0.18l-0.07,0a5.83,5.83 0 0 0 -0.6,0.26l0,0a6.1,6.1 0 0 0 -2.53,8.59a1,1 0 1 1 -1.72,1a8.1,8.1 0 0 1 2.64,-11a13.4,13.4 0 0 0 -12.92,-9.78c-0.39,0 -0.77,0 -1.15,0.05l-0.08,0a13.43,13.43 0 0 0 -12,11.37a1,1 0 0 1 -0.2,0.45a13.4,13.4 0 0 0 -0.09,1.47q0,0.51 0,1a1,1 0 0 1 -0.92,1.07l-0.08,0a1,1 0 0 1 -1,-0.93q0,-0.57 0,-1.15c0,-0.35 0,-0.69 0.05,-1a11.38,11.38 0 0 0 0.72,22.75l38.07,0a8.56,8.56 0 0 0 0.86,-17.08zm-36.24,3.21a1,1 0 0 1 -1.36,-0.39q-0.31,-0.56 -0.57,-1.14a1,1 0 1 1 1.82,-0.82q0.23,0.51 0.5,1a1,1 0 0 1 -0.39,1.35z"/>
 </g>
</svg>