<svg width="64" height="64" xmlns="http://www.w3.org/2000/svg">
 <title/>

 <g>
  <title>background</title>
  <rect fill="none" id="canvas_background" height="402" width="582" y="-1" x="-1"/>
 </g>
 <g>
  <title>Layer 1</title>
  <path fill="#d8d83a" id="svg_1" d="m32,12a20.08,20.08 0 1 0 20.08,20a20.11,20.11 0 0 0 -20.08,-20z"/>
  <path fill="#d8d83a" id="svg_2" d="m32,7.88a1,1 0 0 1 -1,-1l0,-4.88a1,1 0 0 1 2,0l0,4.88a1,1 0 0 1 -1,1z"/>
  <path fill="#d8d83a" id="svg_3" d="m32,63a1,1 0 0 1 -1,-1l0,-4.87a1,1 0 0 1 2,0l0,4.87a1,1 0 0 1 -1,1z"/>
  <path fill="#d8d83a" id="svg_4" d="m62,33l-4.87,0a1,1 0 0 1 0,-2l4.87,0a1,1 0 0 1 0,2z"/>
  <path fill="#d8d83a" id="svg_5" d="m6.88,33l-4.88,0a1,1 0 0 1 0,-2l4.88,0a1,1 0 0 1 0,2z"/>
  <path fill="#d8d83a" id="svg_6" d="m53.18,54.18a1,1 0 0 1 -0.71,-0.29l-3.42,-3.42a1,1 0 0 1 1.41,-1.41l3.42,3.42a1,1 0 0 1 -0.71,1.71l0.01,-0.01z"/>
  <path fill="#d8d83a" id="svg_7" d="m14.23,15.23a1,1 0 0 1 -0.71,-0.29l-3.42,-3.42a1,1 0 0 1 1.41,-1.41l3.42,3.42a1,1 0 0 1 -0.71,1.71l0.01,-0.01z"/>
  <path fill="#d8d83a" id="svg_8" d="m10.82,54.18a1,1 0 0 1 -0.71,-1.71l3.42,-3.42a1,1 0 0 1 1.41,1.41l-3.42,3.42a1,1 0 0 1 -0.7,0.3z"/>
  <path fill="#d8d83a" id="svg_9" d="m49.87229,15.23a1,1 0 0 1 -0.71,-1.71l3.42,-3.42a1,1 0 0 1 1.41,1.41l-3.42,3.42a1,1 0 0 1 -0.7,0.3z"/>
 </g>
</svg>